<?xml version="1.0" encoding="UTF-8"?>
<svg version="1.1" xmlns="http://www.w3.org/2000/svg" width="1024" height="1024">
<path d="M0 0 C239.58 0 479.16 0 726 0 C724.8513824 24.1209696 724.8513824 24.1209696 723.98790455 33.54535007 C723.89062261 34.64665114 723.79334067 35.7479522 723.69311079 36.88262603 C723.37222403 40.50355293 723.04525203 44.1239017 722.71821594 47.74427795 C722.48202081 50.39502709 722.24617153 53.04580498 722.01073998 55.69662184 C721.50125078 61.42539433 720.98859515 67.15387628 720.47377014 72.88217163 C719.7079532 81.40334941 718.94719062 89.92497336 718.18740769 98.44669101 C716.90714627 112.80451709 715.62287626 127.16198193 714.33629799 141.51924324 C713.05955329 155.76694889 711.7846702 170.01481918 710.51219749 184.26290703 C710.43272887 185.15272042 710.35326024 186.04253381 710.27138348 186.95931125 C709.86760778 191.48051689 709.46386551 196.00172551 709.06013658 200.52293532 C706.2014918 232.53521096 703.33888472 264.54713115 700.47387695 296.55883789 C697.70675439 327.47696935 694.94120183 358.3952405 692.17797852 389.3137207 C692.09315318 390.26284669 692.00832784 391.21197268 691.92093204 392.18986006 C690.73004257 405.51497507 689.53925783 418.84009944 688.34850073 432.16522628 C687.01654963 447.07033414 685.68454986 461.97543765 684.35249101 476.88053589 C684.18867601 478.7135515 684.02486208 480.54656721 683.86104924 482.37958301 C681.63668816 507.26949318 679.41124155 532.15930597 677.18446432 557.04900009 C676.65319828 562.98724179 676.12200134 568.92548968 675.59085119 574.86374176 C675.51692368 575.6902461 675.44299617 576.51675045 675.36682843 577.36830039 C675.07186582 580.66597437 674.77690495 583.96364851 674.48195248 587.26132339 C673.65299565 596.52933074 672.82384719 605.79732086 671.99415291 615.06526222 C671.67439884 618.63719579 671.35476105 622.20913969 671.0353935 625.78110784 C670.9730541 626.47833598 670.91071471 627.17556412 670.84648624 627.89392039 C670.72151906 629.29161704 670.59655642 630.68931409 670.47159838 632.08701155 C670.10594066 636.17572946 669.73924391 640.26435258 669.371735 644.3529045 C668.07239336 658.81281225 666.80025488 673.27457771 665.57181596 687.7406948 C665.16556919 692.51424774 664.75496973 697.28742869 664.3443824 702.06061001 C663.95152108 706.63490048 663.56634868 711.20975503 663.18691674 715.78517792 C662.95216001 718.59478244 662.7103249 721.40374457 662.46652962 724.21257782 C662.30125703 726.14255261 662.14477222 728.07327356 661.98850726 730.00399854 C661.88761851 731.15151882 661.78672977 732.2990391 661.68278378 733.48133272 C661.59870121 734.48043364 661.51461865 735.47953457 661.42798812 736.50891128 C661 739 661 739 659 742 C656.06225586 743.10366821 656.06225586 743.10366821 652.21484375 744.14697266 C651.50849824 744.34191126 650.80215273 744.53684986 650.07440281 744.73769569 C647.69823795 745.39059005 645.31799486 746.02715254 642.9375 746.6640625 C641.23839945 747.12768498 639.53958889 747.59237137 637.84104919 748.05804443 C634.16983837 749.06232431 630.49681185 750.05955975 626.82223511 751.05145264 C620.92530517 752.64345853 615.03272166 754.2511352 609.14086914 755.86181641 C602.9747687 757.54689649 596.80850216 759.23133871 590.6408844 760.91085815 C571.39136497 766.15387748 552.16746268 771.48707863 532.94836426 776.84036255 C523.67887664 779.4221294 514.40775964 781.99803645 505.13671875 784.57421875 C503.74357389 784.96138974 503.74357389 784.96138974 502.3222847 785.35638237 C479.50152884 791.69824772 456.67433601 798.01683824 433.84593582 804.33112335 C430.79096299 805.1761691 427.73603632 806.02138157 424.68112183 806.86663818 C422.71376645 807.41093295 420.74641011 807.95522418 418.77905273 808.49951172 C417.82827882 808.76258999 416.8775049 809.02566826 415.89791965 809.2967186 C411.33803456 810.55812118 406.7777163 811.81791079 402.21632385 813.07385254 C400.52636738 813.53927041 398.83642061 814.0047235 397.14648438 814.47021484 C396.34517562 814.69091267 395.54386686 814.91161049 394.71827602 815.13899612 C390.05390538 816.42601699 385.39665849 817.73554402 380.74414062 819.06494141 C379.71605286 819.35548904 378.68796509 819.64603668 377.62872314 819.94538879 C375.86515966 820.44468077 374.10369519 820.95150782 372.34539795 821.46903992 C361.83845632 824.42245505 353.45587635 822.03566871 343.2421875 819.1015625 C341.74248682 818.67921504 340.2425088 818.25785135 338.74227905 817.83738708 C335.49825184 816.92618565 332.25610492 816.00866314 329.01525879 815.08621216 C323.77715743 813.5955522 318.53499921 812.11953976 313.29199219 810.64624023 C311.46715611 810.13331035 309.64232708 809.62035536 307.81750488 809.1073761 C306.89999954 808.849461 305.9824942 808.59154591 305.03718567 808.3258152 C302.1943733 807.52610108 299.35195698 806.72499321 296.50964355 805.92350769 C277.07673049 800.44542453 257.61727403 795.06445267 238.15478516 789.69256592 C229.26428105 787.23860413 220.37491515 784.78052451 211.48545074 782.32279968 C208.52896074 781.50543323 205.57243662 780.68819031 202.61590576 779.87097168 C182.5757564 774.33135431 162.53858024 768.78101667 142.50212097 763.22806931 C139.93750371 762.51732202 137.37286854 761.8066394 134.80822754 761.09597778 C133.99247757 760.86991632 133.1767276 760.64385485 132.33625793 760.41094303 C130.71566664 759.96188247 129.09505119 759.51290905 127.47441101 759.06402493 C123.57618304 757.98409973 119.67845977 756.90242294 115.78186035 755.81663513 C108.62287055 753.82347676 101.46021704 751.84810601 94.28143883 749.92723846 C90.89626944 749.02032275 87.51360907 748.10425272 84.13113785 747.18733215 C82.5186729 746.75301962 80.90497616 746.32325257 79.29003525 745.89823914 C77.07052062 745.31385637 74.85562113 744.71435939 72.64111328 744.11132812 C70.74826096 743.60672058 70.74826096 743.60672058 68.81716919 743.09191895 C67.88750336 742.73158569 66.95783752 742.37125244 66 742 C65.10439167 739.313175 64.75286378 737.25267634 64.50439578 734.46088654 C64.41911423 733.52264578 64.33383267 732.58440503 64.24596682 731.61773273 C64.15565254 730.58297472 64.06533826 729.54821671 63.97228718 728.48210239 C63.87331687 727.38131004 63.77434655 726.28051769 63.67237714 725.146368 C63.33820445 721.41945856 63.00926325 717.69210533 62.68025208 713.96473694 C62.44061237 711.27996477 62.20068443 708.59521979 61.96040171 705.91050524 C61.43667353 700.05222207 60.91565905 694.19370241 60.39639473 688.33502197 C59.62392772 679.61967922 58.84730938 670.90470994 58.06982851 662.18981321 C56.76067641 647.51398273 55.45492891 632.83785117 54.15110207 618.16154671 C52.85572346 603.58045035 51.55885884 588.99948742 50.26001549 574.41869926 C50.17916052 573.5110124 50.09830554 572.60332553 50.01500042 571.668133 C49.60423178 567.05688136 49.19343734 562.44563203 48.78263339 557.83438354 C45.86770176 525.11388928 42.95618671 492.39309182 40.04663086 459.67211914 C37.23465295 428.0485842 34.42103991 396.42519544 31.60522461 364.80200195 C31.47574552 363.34786876 31.47574552 363.34786876 31.34365069 361.86435914 C30.56244993 353.09098805 29.78123122 344.31761855 28.99999307 335.54425079 C23.57074583 274.57318266 18.14335929 213.60194873 12.72068294 152.63029582 C12.23619382 147.18289532 11.75158639 141.73550535 11.2669239 136.28812027 C11.06946729 134.06868488 10.8720149 131.84924911 10.67456628 129.62981301 C10.54481746 128.17137331 10.41506384 126.71293403 10.28530538 125.25449519 C9.59643905 117.5115724 8.90822151 109.76859302 8.22193301 102.02544129 C8.03971 99.96980112 7.85747991 97.91416159 7.67524166 95.85852277 C7.55403891 94.49133621 7.43285045 93.12414838 7.31167641 91.75695927 C6.52654788 82.90056037 5.73570483 74.04469238 4.93924386 65.18930529 C4.3687347 58.84551424 3.80080888 52.50149524 3.23461032 46.15731802 C2.8970883 42.37721692 2.55814895 38.59725523 2.21568076 34.81759877 C1.83909225 30.66135824 1.46867634 26.5045892 1.09870434 22.34775448 C0.98679093 21.12432634 0.87487752 19.90089821 0.7595728 18.6403965 C0.65882494 17.49774158 0.55807708 16.35508666 0.45427626 15.17780584 C0.36602935 14.19621269 0.27778244 13.21461953 0.18686138 12.20328113 C-0.05005391 8.14194818 0 4.06823723 0 0 Z " fill="#E44D26" transform="translate(149,201)"/>
<path d="M0 0 C150.15 0 300.3 0 455 0 C454.37287902 11.28817764 453.68265575 22.48728832 452.625 33.73046875 C452.49406577 35.14526713 452.36337482 36.56008805 452.23291016 37.97492981 C451.9626556 40.89827578 451.69023634 43.82140822 451.41601562 46.74438477 C451.06623894 50.47355502 450.72100443 54.20312892 450.37722778 57.93285656 C450.10923539 60.83700977 449.83943192 63.74099241 449.56903076 66.64492226 C449.44103544 68.02068451 449.31346268 69.39648614 449.18634033 70.77232933 C449.00879114 72.68977254 448.8286621 74.60697633 448.6484375 76.52416992 C448.54708496 77.60905197 448.44573242 78.69393402 448.34130859 79.81169128 C447.97670177 83.2176387 447.48442576 86.60901967 447 90 C332.49 90 217.98 90 100 90 C102.64 118.05 105.28 146.1 108 175 C108 177.64 108 180.28 108 183 C217.23 183 326.46 183 439 183 C438.67 186.3 438.34 189.6 438 193 C437.80657835 195.06321218 437.61640135 197.12673373 437.4309082 199.19067383 C437.32996857 200.31153381 437.22902893 201.4323938 437.12503052 202.58721924 C437.01802826 203.7817572 436.911026 204.97629517 436.80078125 206.20703125 C436.68556122 207.48995056 436.57034119 208.77286987 436.45162964 210.09466553 C436.13712826 213.59822714 435.8234535 217.10186231 435.51000595 220.60551834 C435.31013677 222.83890737 435.11000567 225.07227281 434.90982056 227.30563354 C433.4457209 243.64450005 431.99333789 259.98426826 430.5859375 276.328125 C430.5002438 277.32274467 430.5002438 277.32274467 430.41281891 278.33745766 C430.18044253 281.03461502 429.94814295 283.73177899 429.71586227 286.42894459 C429.53977685 288.4734661 429.36364849 290.51798392 429.1875 292.5625 C429.12896851 293.24200588 429.07043701 293.92151176 429.01013184 294.62160873 C426.28279289 326.26569638 423.37212412 357.89277078 420.44283772 389.5187273 C419.97819067 394.53586436 419.51422886 399.55306451 419.05078125 404.5703125 C418.96192091 405.53218664 418.87306057 406.49406078 418.78150749 407.48508263 C417.10561754 425.64981972 415.52369793 443.82190059 414 462 C412.58311914 462.4772935 411.16579532 462.95327216 409.74829102 463.42871094 C408.95906754 463.69391541 408.16984406 463.95911987 407.35670471 464.23236084 C403.91364155 465.3538548 400.43282839 466.30700398 396.9375 467.25 C389.55655343 469.26663915 382.2135337 471.39698377 374.875 473.5625 C366.94680958 475.89672898 359.01764671 478.03100448 350.984375 479.97265625 C345.40279078 481.36805231 339.92078882 483.1061236 334.42089844 484.78930664 C328.03075249 486.73000401 321.61660044 488.36695151 315.125 489.9375 C310.36707938 491.12698016 305.68858513 492.56500879 301 494 C293.74867931 496.2193436 286.4964564 498.15408313 279.125 499.9375 C274.36707291 501.12698177 269.68862058 502.56510702 265 504 C257.5630068 506.27460284 250.1159456 508.31132753 242.55078125 510.11328125 C239.35355048 510.91170962 236.26142321 511.87046725 233.125 512.875 C227.50382639 514.38615745 223.51623538 513.60432344 218 512 C216.75089844 511.66613281 215.50179687 511.33226562 214.21484375 510.98828125 C207.55222974 509.19592254 200.92680696 507.27734769 194.30859375 505.328125 C192.30992908 504.73947043 190.31123053 504.15093091 188.3125 503.5625 C187.30074707 503.26456543 186.28899414 502.96663086 185.24658203 502.65966797 C177.32469865 500.34488888 169.35959488 498.24440459 161.36450195 496.19946289 C154.37325412 494.39668076 147.47179677 492.37299891 140.57080078 490.25415039 C133.1463753 487.9957953 125.65479671 486.04023889 118.14013672 484.10717773 C112.03160923 482.53489498 105.95595802 480.88505439 99.8984375 479.125 C94.52648942 477.56587486 89.13689777 476.06895781 83.75 474.5625 C82.66847656 474.25997314 81.58695312 473.95744629 80.47265625 473.64575195 C74.02455978 471.84313654 67.57559669 470.04364839 61.125 468.25 C60.04375854 467.94896362 60.04375854 467.94896362 58.94067383 467.6418457 C53.92748645 466.24900018 48.90453322 464.89585953 43.87109375 463.578125 C42 463 42 463 41 462 C40.69330402 459.25003063 40.44804667 456.51580967 40.23828125 453.7578125 C40.16722672 452.8760585 40.09617218 451.9943045 40.02296448 451.08583069 C39.86608218 449.13690569 39.71112987 447.18782466 39.55780029 445.23861694 C39.13118696 439.82357858 38.68898648 434.4098216 38.24609375 428.99609375 C38.15007874 427.82051407 38.05406372 426.64493439 37.95513916 425.43373108 C37.1704132 415.90106365 36.33167596 406.37384971 35.47265625 396.84765625 C35.40686434 396.11751564 35.34107243 395.38737503 35.27328682 394.63510895 C34.61841607 387.37224122 33.95951804 380.10974595 33.29627514 372.84763813 C33.04470399 370.08814577 32.7949064 367.32849433 32.54539299 364.56881523 C32.3783406 362.72834596 32.20885711 360.8880978 32.03919983 359.04786682 C30.86351519 346.04034022 29.9652892 333.03140427 29 320 C59.03 320 89.06 320 120 320 C123.44781595 348.73179961 123.44781595 348.73179961 124.16796875 357.72265625 C124.25250809 358.73049667 124.33704742 359.7383371 124.42414856 360.77671814 C124.68281802 363.87164669 124.93534202 366.96703497 125.1875 370.0625 C125.36611971 372.21292528 125.54515499 374.36331609 125.72460938 376.51367188 C126.15449313 381.67539959 126.57888408 386.83754989 127 392 C127.69432632 392.17023178 128.38865265 392.34046356 129.10401917 392.51585388 C140.91484499 395.41375679 152.66728467 398.41269756 164.3425293 401.81884766 C170.19846773 403.51604439 176.07731041 405.05406606 182 406.5 C189.06690398 408.22625057 196.07215384 410.11071663 203.0625 412.125 C203.94897217 412.37975098 204.83544434 412.63450195 205.7487793 412.89697266 C209.33265173 413.93024056 212.91223091 414.97362991 216.484375 416.046875 C217.41765625 416.32015625 218.3509375 416.5934375 219.3125 416.875 C220.42044922 417.21144531 220.42044922 417.21144531 221.55078125 417.5546875 C227.99839607 418.7269811 233.35186062 417.90814708 239.5 415.875 C246.60962082 413.65083291 253.76314658 411.76478053 261 410 C268.55816208 408.14697803 276.03632881 406.16511242 283.47949219 403.89672852 C290.7095489 401.72511076 298.03896852 399.96900168 305.36962891 398.17333984 C311.93241134 396.55353976 318.37991395 394.77138823 324.8046875 392.6640625 C327 392 327 392 329 392 C329.05410538 390.98653503 329.10821075 389.97307007 329.16395569 388.92889404 C329.75929901 378.12459661 330.601522 367.3557576 331.55859375 356.578125 C331.70950541 354.85912722 331.86022218 353.14011232 332.01075745 351.42108154 C332.32445877 347.84439108 332.63972195 344.26784332 332.95629883 340.69140625 C333.35622697 336.17315109 333.75338585 331.65465834 334.1494894 327.13606644 C334.53484945 322.74166385 334.92169791 318.34739259 335.30859375 313.953125 C335.41459302 312.74694393 335.41459302 312.74694393 335.52273369 311.51639557 C336.62364097 299.00480817 337.80915716 286.50384986 339 274 C235.38 274 131.76 274 25 274 C23.23137882 257.49286902 21.47455842 241.00112929 19.94921875 224.47265625 C19.76832782 222.52745936 19.58730887 220.58227438 19.40617371 218.63710022 C18.92895874 213.50524574 18.45454026 208.37313678 17.98097992 203.24094391 C17.68351638 200.01935664 17.3852305 196.79784642 17.08673096 193.57635498 C14.47814812 165.41432906 11.93838613 137.24755843 9.52786255 109.06790161 C8.10729153 92.46366822 6.63193608 75.86578677 5.078125 59.2734375 C4.99657795 58.40240513 4.9150309 57.53137276 4.83101273 56.63394547 C4.0306676 48.09189074 3.22565555 39.55028859 2.4130249 31.00939369 C2.11699468 27.89475762 1.8226254 24.77996576 1.52849579 21.66514969 C1.32548934 19.52336729 1.1198572 17.38184779 0.91412354 15.24032593 C0.79309265 13.95896759 0.67206177 12.67760925 0.54736328 11.35742188 C0.44110626 10.24427612 0.33484924 9.13113037 0.22537231 7.98425293 C0.02487158 5.32933542 0 2.6624777 0 0 Z " fill="#FEFEFE" transform="translate(284,353)"/>
<path d="M0 0 C97.68 0 195.36 0 296 0 C294.91434263 28.22709163 294.91434263 28.22709163 293.46875 39.1328125 C292.98880435 43.0923641 292.70982954 47.0195385 292.5 51 C292.18036588 56.96505407 291.56172722 62.85151915 290.80297852 68.77661133 C289.7660058 77.28247356 289.25312281 85.83146808 288.69750977 94.37988281 C288.62072998 95.53713867 288.5439502 96.69439453 288.46484375 97.88671875 C288.399021 98.92014404 288.33319824 99.95356934 288.26538086 101.01831055 C287.99548938 104.05067914 287.51435036 107.00065575 287 110 C286.82815713 112.43580452 286.68456485 114.87369419 286.5625 117.3125 C286.21996482 123.5080427 285.59199383 129.61675717 284.80322266 135.77392578 C283.76646097 144.28073749 283.25318283 152.83054458 282.69750977 161.37988281 C282.62072998 162.53713867 282.5439502 163.69439453 282.46484375 164.88671875 C282.399021 165.92014404 282.33319824 166.95356934 282.26538086 168.01831055 C281.99548938 171.05067914 281.51435036 174.00065575 281 177 C280.82815713 179.43580452 280.68456485 181.87369419 280.5625 184.3125 C280.21996482 190.5080427 279.59199383 196.61675717 278.80322266 202.77392578 C277.76646097 211.28073749 277.25318283 219.83054458 276.69750977 228.37988281 C276.62072998 229.53713867 276.5439502 230.69439453 276.46484375 231.88671875 C276.399021 232.92014404 276.33319824 233.95356934 276.26538086 235.01831055 C275.99548938 238.05067914 275.51435036 241.00065575 275 244 C274.82815713 246.43580452 274.68456485 248.87369419 274.5625 251.3125 C274.21996482 257.5080427 273.59199383 263.61675717 272.80322266 269.77392578 C271.76646097 278.28073749 271.25318283 286.83054458 270.69750977 295.37988281 C270.62072998 296.53713867 270.5439502 297.69439453 270.46484375 298.88671875 C270.399021 299.92014404 270.33319824 300.95356934 270.26538086 302.01831055 C269.99548938 305.05067914 269.51435036 308.00065575 269 311 C268.82815713 313.43580452 268.68456485 315.87369419 268.5625 318.3125 C268.21996482 324.5080427 267.59199383 330.61675717 266.80322266 336.77392578 C265.76646097 345.28073749 265.25318283 353.83054458 264.69750977 362.37988281 C264.62072998 363.53713867 264.5439502 364.69439453 264.46484375 365.88671875 C264.399021 366.92014404 264.33319824 367.95356934 264.26538086 369.01831055 C263.99548938 372.05067914 263.51435036 375.00065575 263 378 C262.82815713 380.43580452 262.68456485 382.87369419 262.5625 385.3125 C262.21996482 391.5080427 261.59199383 397.61675717 260.80322266 403.77392578 C259.76646097 412.28073749 259.25318283 420.83054458 258.69750977 429.37988281 C258.62072998 430.53713867 258.5439502 431.69439453 258.46484375 432.88671875 C258.399021 433.92014404 258.33319824 434.95356934 258.26538086 436.01831055 C257.99548938 439.05067914 257.51435036 442.00065575 257 445 C256.74023713 448.68203559 256.55996501 452.36411662 256.37890625 456.05078125 C256.11042546 460.22932695 255.60097861 464.36979389 255.0859375 468.5234375 C253.5835152 480.79756852 252.75417603 493.13123089 251.82543945 505.45922852 C250.83583603 518.52545177 249.6580052 531.54893266 248.22052002 544.57362366 C247.09998028 554.82631869 246.12034803 565.08915529 245.17578125 575.359375 C245.09927652 576.19119986 245.0227718 577.02302471 244.94394875 577.88005638 C244.47652267 582.97092037 244.01235214 588.06207756 243.54907227 593.15332031 C243.14824731 597.55288087 242.74489734 601.95220996 242.34179688 606.3515625 C241.55880824 614.90082447 240.77848754 623.45032699 240 632 C227.43847425 636.25689495 227.43847425 636.25689495 221.6015625 637.75390625 C220.48265625 638.04523437 219.36375 638.3365625 218.2109375 638.63671875 C217.02757812 638.94222656 215.84421875 639.24773438 214.625 639.5625 C202.69120138 642.68044944 190.8377996 646.03668505 179 649.5 C166.43361527 653.17373075 153.84570736 656.68968844 141.18212891 660.01611328 C130.97117909 662.71038528 120.81972947 665.58883796 110.67175293 668.50900269 C98.55847645 671.99440762 86.42472946 675.39844865 74.27575684 678.75720215 C64.37679041 681.49471642 54.49370619 684.27982807 44.625 687.125 C34.54903994 690.02556571 24.44348389 692.79931168 14.3125 695.5 C13.64559143 695.6780719 12.97868286 695.8561438 12.29156494 696.03961182 C1.18846939 699 1.18846939 699 0 699 C0 667.65 0 636.3 0 604 C4.95 602.68 9.9 601.36 15 600 C19.00221395 598.88203462 23.00218259 597.75833045 27 596.625 C35.3930147 594.25670575 43.80430553 591.98524549 52.25 589.8125 C59.04320687 588.0643482 65.75358617 586.19566399 72.4375 584.0625 C78.43563313 582.2735831 84.50879553 580.76873194 90.5703125 579.2109375 C95.58630121 577.91437645 100.56276071 576.57571467 105.5 575 C111.44346459 573.1031496 117.45969728 571.55246588 123.5 570 C130.5660072 568.18275362 137.56026853 566.27054967 144.515625 564.0625 C158.2001329 559.88964557 172.10222503 556.38484491 186 553 C185.98722015 552.43216293 185.97444031 551.86432587 185.96127319 551.27928162 C185.87223738 544.03882969 186.42860501 536.92772377 187.1015625 529.72265625 C187.28082468 527.74261697 187.46008686 525.7625777 187.63934898 523.78253841 C187.83142195 521.67078275 188.02572096 519.55924285 188.22070312 517.44775391 C188.63336817 512.97859277 189.03980114 508.50887765 189.4453125 504.0390625 C189.94111272 498.57820079 190.43831001 493.11747002 190.93735886 487.65690422 C191.80929313 478.11459679 192.67025328 468.57134496 193.5234375 459.02734375 C193.58463461 458.3428566 193.64583172 457.65836945 193.70888329 456.95314026 C194.01654282 453.51131788 194.32398923 450.06947651 194.63131714 446.62762451 C195.18941074 440.37810047 195.7489521 434.12870603 196.30856895 427.87931824 C196.43350339 426.48412708 196.5584233 425.08893461 196.68332863 423.69374084 C197.50360791 414.53142773 198.32610033 405.3693161 199.15060425 396.2073822 C199.5984272 391.23109348 200.04567103 386.25475277 200.49271202 381.27839375 C200.80758714 377.77338463 201.12268952 374.26839632 201.43835449 370.76345825 C202.7420329 356.28416889 204.027134 341.80376227 205.24421501 327.31690788 C205.41625067 325.27043763 205.58894862 323.22402433 205.76185608 321.17762756 C206.2990135 314.81617383 206.83075938 308.45434864 207.35180664 302.09155273 C207.54158824 299.83054615 207.73159794 297.56955869 207.921875 295.30859375 C208.0418409 293.80238464 208.0418409 293.80238464 208.16423035 292.26574707 C208.24506363 291.31880981 208.32589691 290.37187256 208.40917969 289.39624023 C208.4754657 288.5901683 208.54175171 287.78409637 208.61004639 286.95359802 C209.18475412 282.60062995 210.13890454 278.30547728 211 274 C101.77 274 -7.46 274 -120 274 C-128 191.71428571 -128 191.71428571 -128 181 C-13.49 181 101.02 181 219 181 C219.33 175.06 219.66 169.12 220 163 C220.43082817 157.75171485 220.88186994 152.5116436 221.375 147.26953125 C221.50593423 145.85473287 221.63662518 144.43991195 221.76708984 143.02507019 C222.0373444 140.10172422 222.30976366 137.17859178 222.58398438 134.25561523 C222.93376106 130.52644498 223.27899557 126.79687108 223.62277222 123.06714344 C223.89076461 120.16299023 224.16056808 117.25900759 224.43096924 114.35507774 C224.55896456 112.97931549 224.68653732 111.60351386 224.81365967 110.22767067 C224.99120886 108.31022746 225.1713379 106.39302367 225.3515625 104.47583008 C225.45291504 103.39094803 225.55426758 102.30606598 225.65869141 101.18830872 C226.02329823 97.7823613 226.51557424 94.39098033 227 91 C76.85 91 -73.3 91 -228 91 C-228 90.67 -228 90.34 -228 90 C-152.76 90 -77.52 90 0 90 C0 60.3 0 30.6 0 0 Z " fill="#F06529" transform="translate(512,262)"/>
<path d="M0 0 C150.15 0 300.3 0 455 0 C454.37287902 11.28817764 453.68265575 22.48728832 452.625 33.73046875 C452.49406577 35.14526713 452.36337482 36.56008805 452.23291016 37.97492981 C451.9626556 40.89827578 451.69023634 43.82140822 451.41601562 46.74438477 C451.06623894 50.47355502 450.72100443 54.20312892 450.37722778 57.93285656 C450.10923539 60.83700977 449.83943192 63.74099241 449.56903076 66.64492226 C449.44103544 68.02068451 449.31346268 69.39648614 449.18634033 70.77232933 C449.00879114 72.68977254 448.8286621 74.60697633 448.6484375 76.52416992 C448.54708496 77.60905197 448.44573242 78.69393402 448.34130859 79.81169128 C447.97670177 83.2176387 447.48442576 86.60901967 447 90 C332.49 90 217.98 90 100 90 C102.64 118.05 105.28 146.1 108 175 C108 177.64 108 180.28 108 183 C217.23 183 326.46 183 439 183 C439 184.65 439 186.3 439 188 C438.67 186.68 438.34 185.36 438 184 C368.7 184 299.4 184 228 184 C228 213.7 228 243.4 228 274 C161.01 274 94.02 274 25 274 C23.23137882 257.49286902 21.47455842 241.00112929 19.94921875 224.47265625 C19.76832782 222.52745936 19.58730887 220.58227438 19.40617371 218.63710022 C18.92895874 213.50524574 18.45454026 208.37313678 17.98097992 203.24094391 C17.68351638 200.01935664 17.3852305 196.79784642 17.08673096 193.57635498 C14.47814812 165.41432906 11.93838613 137.24755843 9.52786255 109.06790161 C8.10729153 92.46366822 6.63193608 75.86578677 5.078125 59.2734375 C4.99657795 58.40240513 4.9150309 57.53137276 4.83101273 56.63394547 C4.0306676 48.09189074 3.22565555 39.55028859 2.4130249 31.00939369 C2.11699468 27.89475762 1.8226254 24.77996576 1.52849579 21.66514969 C1.32548934 19.52336729 1.1198572 17.38184779 0.91412354 15.24032593 C0.79309265 13.95896759 0.67206177 12.67760925 0.54736328 11.35742188 C0.44110626 10.24427612 0.33484924 9.13113037 0.22537231 7.98425293 C0.02487158 5.32933542 0 2.6624777 0 0 Z " fill="#EBEAEA" transform="translate(284,353)"/>
<path d="M0 0 C30.03 0 60.06 0 91 0 C94.44781595 28.73179961 94.44781595 28.73179961 95.16796875 37.72265625 C95.25250809 38.73049667 95.33704742 39.7383371 95.42414856 40.77671814 C95.68281802 43.87164669 95.93534202 46.96703497 96.1875 50.0625 C96.36611971 52.21292528 96.54515499 54.36331609 96.72460938 56.51367188 C97.15449313 61.67539959 97.57888408 66.83754989 98 72 C98.69432632 72.17023178 99.38865265 72.34046356 100.10401917 72.51585388 C111.91484499 75.41375679 123.66728467 78.41269756 135.3425293 81.81884766 C142.01427387 83.75248532 148.72523864 85.45663408 155.47265625 87.10351562 C162.41632779 88.81482995 169.28613954 90.74445964 176.14453125 92.76953125 C184.05736333 95.0854821 191.97256938 96.99314234 200 99 C199.505 146.025 199.505 146.025 199 194 C192.83585302 192.7671706 186.88760034 191.52845879 180.875 189.8125 C180.11985107 189.60036865 179.36470215 189.3882373 178.58666992 189.16967773 C174.15228724 187.91730705 169.72869003 186.62994948 165.30859375 185.328125 C163.30992908 184.73947043 161.31123053 184.15093091 159.3125 183.5625 C158.30074707 183.26456543 157.28899414 182.96663086 156.24658203 182.65966797 C148.32469865 180.34488888 140.35959488 178.24440459 132.36450195 176.19946289 C125.37325412 174.39668076 118.47179677 172.37299891 111.57080078 170.25415039 C104.1463753 167.9957953 96.65479671 166.04023889 89.14013672 164.10717773 C83.03160923 162.53489498 76.95595802 160.88505439 70.8984375 159.125 C65.52648942 157.56587486 60.13689777 156.06895781 54.75 154.5625 C53.12771484 154.10870972 53.12771484 154.10870972 51.47265625 153.64575195 C45.02455978 151.84313654 38.57559669 150.04364839 32.125 148.25 C31.40417236 148.04930908 30.68334473 147.84861816 29.94067383 147.6418457 C24.92748645 146.24900018 19.90453322 144.89585953 14.87109375 143.578125 C13 143 13 143 12 142 C11.69330402 139.25003063 11.44804667 136.51580967 11.23828125 133.7578125 C11.16722672 132.8760585 11.09617218 131.9943045 11.02296448 131.08583069 C10.86608218 129.13690569 10.71112987 127.18782466 10.55780029 125.23861694 C10.13118696 119.82357858 9.68898648 114.4098216 9.24609375 108.99609375 C9.15007874 107.82051407 9.05406372 106.64493439 8.95513916 105.43373108 C8.1704132 95.90106365 7.33167596 86.37384971 6.47265625 76.84765625 C6.40686434 76.11751564 6.34107243 75.38737503 6.27328682 74.63510895 C5.61841607 67.37224122 4.95951804 60.10974595 4.29627514 52.84763813 C4.04470399 50.08814577 3.7949064 47.32849433 3.54539299 44.56881523 C3.3783406 42.72834596 3.20885711 40.8880978 3.03919983 39.04786682 C1.86351519 26.04034022 0.9652892 13.03140427 0 0 Z " fill="#EBEAEA" transform="translate(313,673)"/>
<path d="M0 0 C74.91 0 149.82 0 227 0 C226.37287902 11.28817764 225.68265575 22.48728832 224.625 33.73046875 C224.49406577 35.14526713 224.36337482 36.56008805 224.23291016 37.97492981 C223.9626556 40.89827578 223.69023634 43.82140822 223.41601562 46.74438477 C223.06623894 50.47355502 222.72100443 54.20312892 222.37722778 57.93285656 C222.10923539 60.83700977 221.83943192 63.74099241 221.56903076 66.64492226 C221.44103544 68.02068451 221.31346268 69.39648614 221.18634033 70.77232933 C221.00879114 72.68977254 220.8286621 74.60697633 220.6484375 76.52416992 C220.49640869 78.151493 220.49640869 78.151493 220.34130859 79.81169128 C219.97670177 83.2176387 219.48442576 86.60901967 219 90 C146.73 90 74.46 90 0 90 C0 60.3 0 30.6 0 0 Z " fill="#FEFEFE" transform="translate(512,353)"/>
<path d="M0 0 C16.17 0 32.34 0 49 0 C59.10729946 15.72246582 59.10729946 15.72246582 62.4921875 21.3515625 C62.84967072 21.9437558 63.20715393 22.5359491 63.57546997 23.14608765 C65.0549717 25.5970364 66.52978862 28.05079144 68.00488281 30.50439453 C69.10308466 32.32950142 70.20380871 34.15306949 71.3046875 35.9765625 C71.94390137 37.03955566 72.58311523 38.10254883 73.24169922 39.19775391 C74.729375 41.56869845 76.27770157 43.79659782 78 46 C80.06054119 42.66441041 82.11931644 39.32773691 84.17675781 35.99023438 C85.2029398 34.3263069 86.23034682 32.66313511 87.2578125 31 C93.59479184 20.71735429 99.7840239 10.35996017 106 0 C122.5 0 139 0 156 0 C156 45.54 156 91.08 156 138 C140.49 138 124.98 138 109 138 C108.67 116.88 108.34 95.76 108 74 C104.37 79.61 100.74 85.22 97 91 C94.73060014 94.50094983 92.46044655 98.00135897 90.1875 101.5 C89.66736328 102.30179687 89.14722656 103.10359375 88.61132812 103.9296875 C85.11378552 109.31320265 81.57268448 114.66606572 78 120 C74.1838282 116.55570573 71.65432507 112.62219932 68.9375 108.3125 C67.9650109 106.78895579 66.99234952 105.26552154 66.01953125 103.7421875 C65.52275879 102.96069336 65.02598633 102.17919922 64.51416016 101.37402344 C62.07348885 97.54734047 59.59743775 93.74370251 57.125 89.9375 C53.69577025 84.65697635 50.33766682 79.34026691 47 74 C46.67 95.12 46.34 116.24 46 138 C30.82 138 15.64 138 0 138 C0 92.46 0 46.92 0 0 Z " fill="#000000" transform="translate(519,0)"/>
<path d="M0 0 C15.51 0 31.02 0 47 0 C47 14.85 47 29.7 47 45 C60.86 45 74.72 45 89 45 C89 30.15 89 15.3 89 0 C104.51 0 120.02 0 136 0 C136 45.54 136 91.08 136 138 C120.49 138 104.98 138 89 138 C89 122.82 89 107.64 89 92 C75.47 92 61.94 92 48 92 C48 107.18 48 122.36 48 138 C32.16 138 16.32 138 0 138 C0 92.46 0 46.92 0 0 Z " fill="#000000" transform="translate(216,0)"/>
<path d="M0 0 C36.63 0 73.26 0 111 0 C111 13.50149158 111 13.50149158 110.51269531 18.89379883 C110.40535065 20.10963654 110.29800598 21.32547424 110.18740845 22.57815552 C110.06884491 23.85818451 109.95028137 25.1382135 109.828125 26.45703125 C109.70396579 27.83735531 109.58022749 29.2177173 109.45687866 30.59811401 C109.12881339 34.25251055 108.79380917 37.90623779 108.45703888 41.55984116 C108.17983057 44.57596907 107.90664399 47.5924565 107.63326454 50.60893345 C105.59400359 73.09020282 103.42523658 95.55676493 101 118 C94.12010212 120.3575974 87.19305193 122.42484985 80.1875 124.375 C79.09018555 124.68171631 77.99287109 124.98843262 76.86230469 125.30444336 C69.37646707 127.38112808 61.86562179 129.31403551 54.3190918 131.15576172 C48.33576311 132.629488 42.41670445 134.27945091 36.5 136 C29.38428047 138.06669062 22.25065917 140.01280579 15.0625 141.8125 C14.24007812 142.01939453 13.41765625 142.22628906 12.5703125 142.43945312 C8.3698046 143.477349 4.28922512 144.28512915 0 145 C0 97.15 0 49.3 0 0 Z " fill="#F16529" transform="translate(512,627)"/>
<path d="M0 0 C42.24 0 84.48 0 128 0 C128 30.36 128 60.72 128 92 C88.4 92 48.8 92 8 92 C6.865625 80.346875 5.73125 68.69375 4.5625 56.6875 C4.02798218 51.19935669 4.02798218 51.19935669 3.48266602 45.6003418 C3.04284668 41.07971191 3.04284668 41.07971191 2.83604431 38.95320129 C2.69371601 37.49033892 2.55125257 36.0274897 2.40867615 34.56465149 C2.05716329 30.95765712 1.7069722 27.35055281 1.3611145 23.74301147 C1.13866647 21.43730088 0.91155377 19.13202797 0.67672729 16.82754517 C0.5848111 15.89808075 0.4928949 14.96861633 0.39819336 14.01098633 C0.32007919 13.24627518 0.24196503 12.48156403 0.16148376 11.69367981 C-0.07179502 7.80240105 0 3.89826492 0 0 Z " fill="#E44D26" transform="translate(384,444)"/>
<path d="M0 0 C42.24 0 84.48 0 128 0 C128 15.18 128 30.36 128 46 C114.47 46 100.94 46 87 46 C87 76.36 87 106.72 87 138 C71.82 138 56.64 138 41 138 C41 107.64 41 77.28 41 46 C27.47 46 13.94 46 0 46 C0 30.82 0 15.64 0 0 Z " fill="#000000" transform="translate(371,0)"/>
<path d="M0 0 C15.51 0 31.02 0 47 0 C47 30.36 47 60.72 47 92 C68.45 92 89.9 92 112 92 C112 107.18 112 122.36 112 138 C75.04 138 38.08 138 0 138 C0 92.46 0 46.92 0 0 Z " fill="#000000" transform="translate(697,0)"/>
</svg>
